<svg id="svg" version="1.1" xmlns="http://www.w3.org/2000/svg" xmlns:xlink="http://www.w3.org/1999/xlink" height="60" viewBox="0, 0, 400,76.80000000000001"><g id="svgg"><path id="path0" d="M24.167 38.418 L 24.167 61.835 38.458 61.793 L 52.750 61.750 52.798 59.750 C 52.825 58.650,52.805 57.581,52.753 57.375 L 52.660 57.000 41.515 57.000 C 31.505 57.000,30.359 56.973,30.268 56.736 C 30.061 56.196,30.155 40.912,30.367 40.700 C 30.517 40.549,32.763 40.500,39.450 40.500 L 48.333 40.500 48.333 38.167 L 48.333 35.833 39.437 35.833 C 32.125 35.833,30.507 35.793,30.352 35.606 C 30.216 35.442,30.175 33.217,30.207 27.648 L 30.250 19.917 41.408 19.874 C 50.080 19.840,52.594 19.785,52.697 19.624 C 52.851 19.382,52.881 15.651,52.732 15.264 C 52.641 15.026,51.223 15.000,38.399 15.000 L 24.167 15.000 24.167 38.418 " stroke="none" fill="#fafbfb" fill-rule="evenodd"></path><path id="path1" d="M23.701 14.866 C 23.302 15.265,23.422 61.780,23.822 61.994 C 24.316 62.258,52.868 62.232,53.133 61.967 C 53.412 61.688,53.412 56.979,53.133 56.700 C 52.981 56.548,50.254 56.509,41.675 56.539 L 30.417 56.579 41.631 56.664 C 51.355 56.739,52.867 56.783,53.004 57.000 C 53.381 57.597,53.199 61.819,52.792 61.918 C 52.585 61.968,46.004 61.988,38.167 61.963 L 23.917 61.917 23.917 38.417 L 23.917 14.917 38.500 14.917 L 53.083 14.917 53.130 17.321 C 53.165 19.132,53.124 19.758,52.963 19.860 C 52.846 19.934,47.744 19.996,41.625 19.997 C 35.506 19.999,30.500 20.056,30.500 20.125 C 30.500 20.194,35.619 20.212,41.875 20.167 L 53.250 20.083 53.250 17.417 L 53.250 14.750 38.576 14.707 C 27.301 14.675,23.855 14.711,23.701 14.866 M30.414 27.958 L 30.417 35.417 39.464 35.500 C 47.264 35.572,48.534 35.618,48.670 35.833 C 48.860 36.134,48.884 40.163,48.697 40.457 C 48.595 40.616,46.511 40.674,39.574 40.709 L 30.583 40.754 39.750 40.752 L 48.917 40.750 48.963 38.206 L 49.009 35.662 48.577 35.498 C 48.313 35.397,44.713 35.333,39.324 35.333 L 30.503 35.333 30.457 27.917 L 30.411 20.500 30.414 27.958 M30.410 48.583 C 30.410 52.892,30.432 54.678,30.458 52.553 C 30.485 50.428,30.485 46.903,30.458 44.720 C 30.432 42.536,30.410 44.275,30.410 48.583 " stroke="none" fill="#4cbcc4" fill-rule="evenodd"></path><path id="path2" d="M4.333 0.256 C 4.333 0.403,4.125 0.550,3.836 0.608 C 3.563 0.662,3.379 0.773,3.429 0.854 C 3.479 0.934,3.328 1.000,3.093 1.000 C 2.806 1.000,2.667 1.091,2.667 1.278 C 2.667 1.431,2.624 1.513,2.572 1.461 C 2.445 1.334,1.333 2.458,1.333 2.714 C 1.333 2.825,1.147 3.133,0.920 3.397 C 0.693 3.661,0.555 3.955,0.614 4.050 C 0.681 4.158,0.613 4.182,0.435 4.114 C 0.265 4.048,0.191 4.071,0.251 4.169 C 0.307 4.259,0.274 4.333,0.178 4.333 C -0.172 4.333,-0.060 72.164,0.291 72.452 C 0.465 72.594,0.482 72.641,0.333 72.568 C 0.196 72.501,0.330 72.686,0.631 72.979 C 0.932 73.273,1.133 73.586,1.079 73.673 C 1.025 73.761,1.102 73.833,1.250 73.833 C 1.398 73.833,1.471 73.912,1.412 74.008 C 1.279 74.223,2.379 75.290,2.643 75.202 C 2.748 75.167,2.833 75.258,2.833 75.403 C 2.833 75.548,2.890 75.658,2.958 75.647 C 3.282 75.596,3.510 75.682,3.424 75.821 C 3.371 75.907,3.498 76.002,3.706 76.034 C 3.913 76.065,4.063 76.189,4.038 76.308 C 4.012 76.427,4.069 76.477,4.163 76.419 C 4.256 76.361,4.333 76.393,4.333 76.490 C 4.333 76.727,71.324 76.738,72.167 76.501 C 72.487 76.411,72.962 76.154,73.222 75.929 C 73.482 75.705,73.800 75.562,73.930 75.612 C 74.074 75.667,74.167 75.597,74.167 75.434 C 74.167 75.287,74.247 75.167,74.345 75.167 C 74.532 75.167,75.000 74.759,75.000 74.597 C 75.000 74.509,75.512 73.870,75.936 73.428 C 76.039 73.322,76.175 73.069,76.239 72.867 C 76.303 72.665,76.419 72.500,76.496 72.500 C 76.573 72.500,76.599 72.361,76.555 72.192 C 76.510 72.022,76.593 71.764,76.738 71.619 C 77.140 71.217,77.138 5.447,76.735 5.045 C 76.592 4.901,76.510 4.645,76.555 4.475 C 76.599 4.305,76.563 4.167,76.475 4.167 C 76.386 4.167,76.360 4.092,76.417 4.000 C 76.473 3.908,76.440 3.833,76.343 3.833 C 76.246 3.833,76.167 3.716,76.167 3.573 C 76.167 3.431,76.097 3.357,76.013 3.409 C 75.928 3.461,75.834 3.390,75.804 3.251 C 75.696 2.748,74.090 1.019,73.722 1.009 C 73.524 1.004,73.336 0.941,73.306 0.869 C 73.275 0.797,73.013 0.572,72.723 0.368 L 72.196 -0.002 38.265 0.001 C 8.061 0.003,4.333 0.031,4.333 0.256 M53.070 14.601 C 53.418 14.735,53.469 19.892,53.125 20.115 C 53.010 20.189,47.892 20.287,41.750 20.333 L 30.583 20.417 30.540 27.875 L 30.497 35.333 39.485 35.333 C 44.428 35.333,48.591 35.379,48.736 35.434 C 48.961 35.521,49.000 35.923,49.000 38.183 L 49.000 40.831 39.792 40.874 L 30.583 40.917 30.540 48.520 C 30.504 54.750,30.537 56.157,30.722 56.310 C 30.883 56.444,34.150 56.510,42.099 56.540 L 53.250 56.583 53.296 59.228 C 53.327 61.036,53.281 61.945,53.151 62.103 C 52.872 62.439,24.234 62.437,23.792 62.101 C 23.412 61.813,23.329 14.763,23.708 14.610 C 24.009 14.489,52.754 14.480,53.070 14.601 M188.708 39.958 L 188.750 56.083 191.482 56.135 C 192.984 56.163,194.279 56.121,194.359 56.041 C 194.440 55.960,194.523 48.722,194.544 39.864 L 194.583 23.833 191.624 23.833 L 188.665 23.833 188.708 39.958 M326.261 24.017 C 326.311 24.099,326.264 24.167,326.154 24.167 C 326.045 24.167,325.816 24.328,325.645 24.526 C 325.293 24.930,325.245 25.074,325.517 24.906 C 325.645 24.827,325.644 24.898,325.511 25.147 C 325.407 25.341,325.249 25.500,325.161 25.500 C 325.066 25.500,325.000 26.356,325.000 27.583 C 325.000 29.262,325.045 29.667,325.234 29.667 C 325.386 29.667,325.438 29.783,325.382 29.998 C 325.327 30.208,325.394 30.367,325.564 30.432 C 325.712 30.489,325.833 30.608,325.833 30.696 C 325.833 30.972,326.294 31.333,326.645 31.333 C 326.829 31.333,327.031 31.415,327.093 31.516 C 327.223 31.725,329.237 31.626,330.167 31.365 C 330.487 31.275,330.675 31.193,330.583 31.184 C 330.492 31.174,330.642 30.973,330.917 30.736 C 331.192 30.500,331.398 30.275,331.375 30.236 C 331.243 30.015,331.369 29.667,331.582 29.667 C 331.790 29.667,331.825 29.321,331.801 27.500 C 331.780 25.831,331.723 25.333,331.553 25.333 C 331.357 25.333,331.299 25.209,331.350 24.901 C 331.359 24.847,331.154 24.581,330.895 24.311 L 330.424 23.820 328.296 23.844 C 327.091 23.857,326.208 23.933,326.261 24.017 M345.833 28.667 C 345.833 31.325,345.793 33.500,345.745 33.500 C 345.696 33.500,345.377 33.383,345.036 33.240 C 344.366 32.958,339.263 32.918,339.435 33.196 C 339.481 33.272,339.328 33.333,339.093 33.333 C 338.833 33.333,338.667 33.427,338.667 33.574 C 338.667 33.728,338.542 33.790,338.318 33.747 C 338.061 33.698,337.995 33.746,338.066 33.932 C 338.125 34.084,338.093 34.141,337.986 34.075 C 337.784 33.950,336.167 35.613,336.167 35.946 C 336.167 36.067,336.092 36.167,336.000 36.167 C 335.908 36.167,335.833 36.284,335.833 36.427 C 335.833 36.569,335.759 36.641,335.669 36.585 C 335.578 36.529,335.542 36.583,335.589 36.706 C 335.636 36.828,335.523 37.091,335.337 37.291 C 335.152 37.490,335.000 37.810,335.000 38.003 C 335.000 38.208,334.927 38.308,334.822 38.243 C 334.724 38.183,334.658 38.234,334.675 38.358 C 334.769 39.044,334.646 39.833,334.445 39.833 C 334.285 39.833,334.218 40.140,334.202 40.933 C 334.191 41.537,334.099 42.131,333.998 42.253 C 333.783 42.511,333.816 47.697,334.031 47.564 C 334.106 47.518,334.167 47.966,334.167 48.560 C 334.167 49.725,334.281 50.219,334.517 50.073 C 334.600 50.022,334.667 50.210,334.667 50.490 C 334.667 50.771,334.742 51.000,334.833 51.000 C 334.925 51.000,335.000 51.183,335.000 51.407 C 335.000 51.631,335.075 51.860,335.167 51.917 C 335.258 51.973,335.333 52.203,335.333 52.427 C 335.333 52.677,335.429 52.833,335.583 52.833 C 335.801 52.833,335.917 53.138,335.853 53.542 C 335.842 53.610,335.927 53.648,336.042 53.625 C 336.163 53.601,336.227 53.714,336.196 53.898 C 336.157 54.125,336.214 54.184,336.404 54.111 C 336.549 54.056,336.667 54.088,336.667 54.184 C 336.667 54.436,337.104 54.833,337.381 54.833 C 337.513 54.833,337.761 55.021,337.933 55.250 C 338.150 55.540,338.405 55.667,338.769 55.667 C 339.057 55.667,339.386 55.779,339.500 55.917 C 339.656 56.104,340.074 56.167,341.175 56.167 C 342.258 56.167,342.708 56.101,342.893 55.917 C 343.030 55.779,343.411 55.667,343.738 55.667 C 344.065 55.667,344.333 55.592,344.333 55.500 C 344.333 55.408,344.390 55.342,344.458 55.353 C 344.918 55.426,345.333 55.298,345.333 55.083 C 345.333 54.946,345.446 54.833,345.583 54.833 C 345.721 54.833,345.833 54.750,345.833 54.649 C 345.833 54.547,345.942 54.506,346.075 54.557 C 346.243 54.622,346.290 54.564,346.230 54.367 C 346.183 54.211,346.259 54.271,346.399 54.500 C 346.540 54.729,346.658 55.090,346.661 55.302 C 346.664 55.515,346.741 55.640,346.833 55.583 C 346.925 55.527,347.000 55.597,347.000 55.740 C 347.000 55.883,347.079 56.000,347.177 56.000 C 347.274 56.000,347.306 55.906,347.247 55.792 C 347.189 55.677,347.252 55.718,347.387 55.883 C 347.655 56.211,351.234 56.295,351.430 55.978 C 351.481 55.895,351.591 55.870,351.675 55.922 C 351.766 55.978,351.829 49.566,351.832 39.924 L 351.837 23.833 348.835 23.833 L 345.833 23.833 345.833 28.667 M256.784 24.404 C 256.619 24.529,256.338 24.593,256.159 24.546 C 255.980 24.499,255.833 24.537,255.833 24.629 C 255.833 24.722,255.646 24.844,255.417 24.902 C 255.188 24.959,255.000 25.080,255.000 25.170 C 255.000 25.260,254.880 25.333,254.733 25.333 C 254.587 25.333,254.204 25.596,253.883 25.917 C 253.563 26.238,253.224 26.500,253.132 26.500 C 253.040 26.500,253.002 26.599,253.049 26.720 C 253.095 26.841,252.988 27.031,252.810 27.142 C 252.632 27.253,252.532 27.417,252.587 27.505 C 252.642 27.594,252.569 27.667,252.427 27.667 C 252.284 27.667,252.167 27.779,252.167 27.917 C 252.167 28.054,252.092 28.167,252.000 28.167 C 251.908 28.167,251.833 28.434,251.833 28.760 C 251.833 29.086,251.766 29.312,251.684 29.261 C 251.509 29.152,251.279 29.944,251.420 30.172 C 251.474 30.259,251.399 30.284,251.253 30.228 C 251.016 30.137,250.990 30.481,251.007 33.480 C 251.017 35.324,251.085 36.833,251.158 36.833 C 251.231 36.833,251.339 37.137,251.399 37.508 C 251.459 37.885,251.579 38.138,251.670 38.081 C 251.760 38.026,251.833 38.145,251.833 38.346 C 251.833 38.547,252.021 38.886,252.250 39.098 C 252.479 39.310,252.667 39.563,252.667 39.659 C 252.667 39.755,252.742 39.833,252.833 39.833 C 252.925 39.833,252.991 39.890,252.980 39.958 C 252.920 40.343,253.026 40.526,253.259 40.436 C 253.401 40.382,253.476 40.403,253.426 40.484 C 253.339 40.625,253.580 40.784,253.902 40.797 C 253.985 40.801,254.120 40.923,254.202 41.068 C 254.283 41.214,254.496 41.333,254.675 41.333 C 254.854 41.333,255.000 41.408,255.000 41.500 C 255.000 41.592,255.179 41.667,255.399 41.667 C 255.618 41.667,255.841 41.779,255.894 41.917 C 255.946 42.054,256.142 42.167,256.328 42.167 C 256.514 42.167,256.667 42.242,256.667 42.333 C 256.667 42.425,256.921 42.500,257.232 42.500 C 257.597 42.500,257.834 42.595,257.900 42.767 C 257.957 42.914,258.099 42.998,258.217 42.952 C 258.334 42.907,258.573 42.975,258.747 43.102 C 258.921 43.229,259.232 43.333,259.439 43.333 C 259.645 43.333,259.860 43.408,259.917 43.500 C 259.973 43.592,260.165 43.667,260.343 43.667 C 260.525 43.667,260.667 43.780,260.667 43.927 C 260.667 44.069,260.742 44.140,260.833 44.083 C 260.925 44.027,261.000 44.065,261.000 44.169 C 261.000 44.408,261.420 44.833,261.655 44.833 C 261.815 44.833,261.912 45.192,261.849 45.554 C 261.836 45.630,261.902 45.644,261.996 45.586 C 262.181 45.472,262.210 45.739,262.168 47.167 C 262.153 47.671,262.072 48.108,261.987 48.139 C 261.903 48.169,261.833 48.342,261.833 48.521 C 261.833 49.091,260.402 50.167,259.643 50.167 C 259.462 50.167,259.360 50.242,259.417 50.333 C 259.475 50.428,259.335 50.500,259.093 50.500 C 258.859 50.500,258.667 50.425,258.667 50.333 C 258.667 50.242,258.375 50.167,258.018 50.167 C 257.595 50.167,257.336 50.080,257.273 49.917 C 257.220 49.779,257.052 49.667,256.900 49.667 C 256.747 49.667,256.501 49.530,256.353 49.363 C 256.205 49.197,255.947 49.010,255.781 48.948 C 255.615 48.886,255.526 48.760,255.583 48.668 C 255.641 48.573,255.513 48.500,255.287 48.500 C 255.022 48.500,254.823 48.359,254.697 48.083 C 254.496 47.643,251.833 47.411,251.833 47.833 C 251.833 47.925,251.716 48.000,251.573 48.000 C 251.431 48.000,251.357 48.070,251.410 48.156 C 251.464 48.242,251.412 48.374,251.295 48.448 C 251.179 48.522,251.076 48.677,251.067 48.792 C 251.016 49.430,250.985 49.511,250.833 49.417 C 250.739 49.358,250.667 49.498,250.667 49.740 C 250.667 49.975,250.590 50.167,250.496 50.167 C 249.900 50.167,249.708 52.193,250.264 52.610 C 250.486 52.776,250.667 52.972,250.667 53.045 C 250.667 53.253,251.655 54.167,251.881 54.167 C 251.992 54.167,252.299 54.353,252.563 54.580 C 252.827 54.807,253.108 54.953,253.186 54.904 C 253.265 54.856,253.280 54.945,253.220 55.102 C 253.149 55.286,253.175 55.348,253.292 55.276 C 253.391 55.214,253.573 55.258,253.695 55.373 C 253.817 55.489,254.142 55.610,254.417 55.642 C 254.692 55.674,254.959 55.768,255.010 55.851 C 255.062 55.933,255.437 56.046,255.843 56.102 C 256.250 56.158,256.658 56.262,256.750 56.334 C 257.009 56.538,260.787 56.544,260.912 56.341 C 260.971 56.245,261.345 56.167,261.742 56.167 C 262.230 56.167,262.495 56.086,262.560 55.917 C 262.617 55.769,262.867 55.667,263.173 55.667 C 263.688 55.667,264.167 55.351,264.167 55.012 C 264.167 54.914,264.322 54.833,264.512 54.833 C 264.895 54.833,265.333 54.469,265.333 54.151 C 265.333 54.037,265.377 53.988,265.431 54.042 C 265.537 54.148,266.167 53.577,266.167 53.373 C 266.167 53.304,266.354 53.044,266.583 52.797 C 266.813 52.550,267.000 52.195,267.000 52.007 C 267.000 51.820,267.075 51.667,267.167 51.667 C 267.258 51.667,267.333 51.479,267.333 51.250 C 267.333 50.991,267.428 50.833,267.583 50.833 C 267.721 50.833,267.824 50.777,267.814 50.708 C 267.742 50.252,267.861 49.497,267.992 49.578 C 268.091 49.639,268.151 48.351,268.152 46.178 C 268.153 44.114,268.088 42.638,267.994 42.579 C 267.906 42.525,267.833 42.289,267.833 42.056 C 267.833 41.747,267.765 41.657,267.583 41.727 C 267.403 41.796,267.333 41.709,267.333 41.411 C 267.333 41.185,267.258 41.000,267.167 41.000 C 267.075 41.000,267.000 40.896,267.000 40.768 C 267.000 40.640,266.883 40.491,266.739 40.436 C 266.596 40.381,266.521 40.267,266.574 40.182 C 266.671 40.025,265.492 39.000,265.213 39.000 C 265.127 39.000,264.956 38.813,264.833 38.583 C 264.679 38.295,264.470 38.167,264.156 38.167 C 263.889 38.167,263.659 38.054,263.597 37.893 C 263.539 37.742,263.447 37.665,263.391 37.720 C 263.335 37.776,263.133 37.712,262.941 37.577 C 262.749 37.443,262.422 37.333,262.213 37.333 C 262.004 37.333,261.833 37.258,261.833 37.167 C 261.833 37.075,261.646 37.000,261.417 37.000 C 261.171 37.000,261.000 36.904,261.000 36.767 C 261.000 36.609,260.832 36.545,260.481 36.569 C 260.196 36.589,259.864 36.506,259.743 36.386 C 259.622 36.265,259.414 36.167,259.280 36.167 C 259.145 36.167,258.990 36.046,258.933 35.899 C 258.876 35.752,258.723 35.673,258.590 35.724 C 258.430 35.786,258.381 35.736,258.443 35.575 C 258.506 35.411,258.423 35.333,258.184 35.333 C 257.991 35.333,257.833 35.258,257.833 35.167 C 257.833 35.075,257.721 35.000,257.583 35.000 C 257.446 35.000,257.333 34.865,257.333 34.700 C 257.333 34.535,257.257 34.323,257.163 34.230 C 256.927 33.994,256.914 31.945,257.148 31.867 C 257.250 31.833,257.333 31.699,257.333 31.569 C 257.333 31.440,257.414 31.333,257.512 31.333 C 257.743 31.333,258.167 30.909,258.167 30.679 C 258.167 30.580,258.348 30.500,258.569 30.500 C 258.791 30.500,258.998 30.424,259.028 30.331 C 259.108 30.093,260.886 30.075,260.965 30.311 C 260.999 30.415,261.209 30.500,261.431 30.500 C 261.677 30.500,261.833 30.597,261.833 30.750 C 261.833 30.994,262.023 31.071,262.475 31.009 C 262.599 30.992,262.651 31.058,262.590 31.156 C 262.530 31.253,262.597 31.333,262.740 31.333 C 262.883 31.333,263.000 31.408,263.000 31.500 C 263.000 31.592,263.104 31.667,263.232 31.667 C 263.360 31.667,263.508 31.779,263.560 31.917 C 263.633 32.106,263.941 32.167,264.833 32.167 C 265.726 32.167,266.034 32.106,266.106 31.917 C 266.159 31.779,266.304 31.667,266.429 31.667 C 266.572 31.667,266.617 31.564,266.550 31.389 C 266.472 31.187,266.503 31.149,266.667 31.250 C 266.830 31.351,266.861 31.313,266.784 31.111 C 266.725 30.958,266.750 30.833,266.839 30.833 C 266.927 30.833,267.000 30.688,267.000 30.510 C 267.000 30.332,267.075 30.140,267.167 30.083 C 267.258 30.027,267.333 29.862,267.333 29.717 C 267.333 29.572,267.465 29.346,267.625 29.214 C 267.785 29.083,267.823 29.023,267.708 29.081 C 267.594 29.139,267.500 29.107,267.500 29.010 C 267.500 28.913,267.565 28.833,267.645 28.833 C 267.965 28.833,267.842 27.183,267.508 27.004 C 267.333 26.911,267.141 26.683,267.083 26.498 C 267.024 26.313,266.914 26.200,266.839 26.247 C 266.763 26.293,266.659 26.219,266.606 26.082 C 266.553 25.945,266.358 25.833,266.172 25.833 C 265.982 25.833,265.833 25.724,265.833 25.583 C 265.833 25.428,265.676 25.333,265.417 25.333 C 265.188 25.333,265.000 25.258,265.000 25.167 C 265.000 25.075,264.821 25.000,264.601 25.000 C 264.382 25.000,264.159 24.887,264.106 24.750 C 264.050 24.604,263.801 24.500,263.505 24.500 C 263.227 24.500,263.000 24.425,263.000 24.333 C 263.000 24.059,257.152 24.125,256.784 24.404 M117.944 24.611 C 117.685 24.870,117.820 55.959,118.081 56.059 C 118.420 56.190,134.390 56.198,134.729 56.068 C 134.964 55.978,135.000 55.603,135.000 53.232 L 135.000 50.500 129.583 50.500 L 124.167 50.500 124.167 46.750 L 124.167 43.000 128.155 43.000 C 133.119 43.000,132.690 43.293,132.629 39.942 L 132.583 37.417 128.375 37.372 L 124.167 37.328 124.167 33.747 L 124.167 30.167 129.482 30.167 C 134.175 30.167,134.810 30.136,134.899 29.903 C 134.954 29.758,135.000 28.483,135.000 27.070 L 135.000 24.500 126.528 24.500 C 121.868 24.500,118.006 24.550,117.944 24.611 M313.560 26.750 C 313.508 26.887,313.360 27.000,313.232 27.000 C 313.096 27.000,313.000 27.172,313.000 27.417 C 313.000 27.646,312.906 27.834,312.792 27.836 C 312.653 27.838,312.667 27.892,312.833 28.000 C 313.000 28.108,313.014 28.162,312.875 28.164 C 312.728 28.166,312.667 28.512,312.667 29.333 C 312.667 29.975,312.604 30.500,312.528 30.500 C 312.356 30.500,312.332 30.633,312.244 32.050 C 312.162 33.376,311.891 33.761,311.089 33.692 C 310.764 33.664,310.474 33.747,310.342 33.906 C 310.223 34.050,309.890 34.167,309.603 34.167 L 309.079 34.167 309.081 35.915 C 309.083 37.229,309.139 37.684,309.309 37.749 C 309.433 37.797,309.490 37.952,309.436 38.093 C 309.382 38.235,309.406 38.308,309.490 38.256 C 309.575 38.204,309.691 38.237,309.748 38.331 C 309.806 38.424,310.299 38.500,310.843 38.500 L 311.833 38.500 311.833 45.500 C 311.833 53.259,311.811 52.668,312.115 52.972 C 312.237 53.094,312.293 53.263,312.241 53.348 C 312.188 53.433,312.263 53.547,312.406 53.602 C 312.549 53.657,312.667 53.847,312.667 54.023 C 312.667 54.363,313.577 55.367,313.739 55.206 C 313.791 55.154,313.833 55.204,313.833 55.317 C 313.833 55.669,314.299 56.011,314.827 56.048 C 315.105 56.067,315.333 56.173,315.333 56.282 C 315.333 56.524,319.110 56.559,319.259 56.319 C 319.311 56.235,319.603 56.167,319.909 56.167 C 320.249 56.167,320.502 56.070,320.560 55.917 C 320.620 55.760,320.875 55.667,321.245 55.667 C 321.568 55.667,321.833 55.602,321.833 55.523 C 321.833 55.444,322.025 55.187,322.259 54.953 C 322.698 54.514,322.843 52.833,322.442 52.833 C 322.352 52.833,322.325 52.787,322.382 52.729 C 322.439 52.672,322.320 52.479,322.118 52.300 C 321.916 52.121,321.844 52.022,321.958 52.080 C 322.083 52.144,322.167 52.078,322.167 51.917 C 322.167 51.768,322.092 51.693,322.000 51.750 C 321.908 51.807,321.833 51.707,321.833 51.528 C 321.833 51.349,321.721 51.159,321.583 51.106 C 321.446 51.054,321.333 50.892,321.333 50.746 C 321.333 50.426,319.186 50.421,319.064 50.741 C 318.940 51.065,318.167 51.035,318.164 50.706 C 318.162 50.472,318.133 50.461,318.013 50.652 C 317.767 51.039,317.747 50.444,317.796 44.297 L 317.842 38.510 319.963 38.463 L 322.083 38.417 322.129 36.068 L 322.175 33.719 320.049 33.682 C 318.879 33.661,317.906 33.629,317.887 33.610 C 317.868 33.590,317.839 32.027,317.822 30.135 C 317.786 26.116,318.049 26.506,315.370 26.502 C 313.999 26.500,313.637 26.550,313.560 26.750 M145.421 33.160 C 145.362 33.255,145.168 33.333,144.990 33.333 C 144.812 33.333,144.667 33.442,144.667 33.574 C 144.667 33.728,144.542 33.790,144.318 33.747 C 144.071 33.699,143.996 33.748,144.060 33.915 C 144.123 34.079,144.065 34.120,143.867 34.049 C 143.442 33.898,143.160 33.645,143.252 33.498 C 143.349 33.339,138.849 33.274,138.448 33.428 C 138.188 33.528,138.167 34.382,138.167 44.749 L 138.167 55.963 138.747 56.072 C 139.537 56.220,143.981 56.165,144.079 56.006 C 144.123 55.937,144.164 52.225,144.171 47.759 C 144.183 40.749,144.218 39.651,144.426 39.730 C 144.568 39.785,144.667 39.723,144.667 39.578 C 144.667 39.443,144.742 39.333,144.833 39.333 C 144.925 39.333,145.000 39.253,145.000 39.155 C 145.000 38.861,145.452 38.500,145.821 38.500 C 146.011 38.500,146.167 38.425,146.167 38.333 C 146.167 37.983,147.119 38.165,147.425 38.573 C 147.593 38.797,147.803 38.935,147.891 38.881 C 147.979 38.826,147.998 38.869,147.932 38.976 C 147.866 39.082,147.926 39.283,148.066 39.423 C 148.205 39.562,148.277 39.787,148.225 39.921 C 148.164 40.081,148.239 40.171,148.441 40.178 C 148.726 40.189,148.724 40.201,148.417 40.333 C 148.134 40.455,148.127 40.478,148.373 40.488 C 148.644 40.499,148.666 41.021,148.707 48.292 L 148.750 56.083 151.482 56.135 C 152.984 56.163,154.278 56.122,154.356 56.044 C 154.434 55.966,154.508 52.361,154.519 48.034 C 154.534 42.148,154.588 40.167,154.734 40.167 C 154.841 40.167,154.940 40.019,154.954 39.838 C 154.967 39.657,155.133 39.343,155.323 39.140 C 155.512 38.937,155.667 38.710,155.667 38.635 C 155.667 38.561,155.779 38.500,155.917 38.500 C 156.054 38.500,156.167 38.425,156.167 38.333 C 156.167 37.960,157.413 38.157,157.731 38.580 C 157.902 38.808,158.119 38.946,158.213 38.888 C 158.308 38.830,158.335 38.862,158.275 38.960 C 158.214 39.058,158.251 39.167,158.357 39.202 C 158.464 39.238,158.586 39.694,158.629 40.217 C 158.672 40.739,158.774 41.167,158.854 41.167 C 158.935 41.167,159.000 44.441,159.000 48.566 C 159.000 55.159,159.029 55.975,159.264 56.066 C 159.941 56.325,164.462 56.173,164.572 55.887 C 164.813 55.259,164.651 38.028,164.403 37.822 C 164.273 37.714,164.167 37.414,164.167 37.156 C 164.167 36.898,164.092 36.640,164.000 36.583 C 163.908 36.527,163.833 36.345,163.833 36.180 C 163.833 36.015,163.648 35.741,163.422 35.571 C 163.130 35.352,163.070 35.226,163.214 35.134 C 163.371 35.034,163.370 35.005,163.208 35.003 C 163.094 35.001,163.000 34.900,163.000 34.778 C 163.000 34.656,162.813 34.456,162.583 34.333 C 162.354 34.211,162.167 34.044,162.167 33.962 C 162.167 33.880,162.092 33.860,162.000 33.917 C 161.908 33.973,161.833 33.932,161.833 33.825 C 161.833 33.718,161.721 33.674,161.583 33.727 C 161.431 33.785,161.333 33.727,161.333 33.578 C 161.333 33.443,161.188 33.333,161.010 33.333 C 160.832 33.333,160.640 33.258,160.583 33.167 C 160.522 33.067,159.443 33.000,157.907 33.000 C 156.302 33.000,155.333 33.063,155.333 33.167 C 155.333 33.258,155.071 33.333,154.750 33.333 C 154.429 33.333,154.167 33.400,154.167 33.482 C 154.167 33.564,153.976 33.678,153.743 33.737 C 153.510 33.795,153.358 33.905,153.404 33.980 C 153.451 34.055,153.304 34.215,153.078 34.336 C 152.852 34.457,152.667 34.648,152.667 34.760 C 152.667 35.153,152.162 35.175,152.004 34.788 C 151.921 34.584,151.661 34.240,151.426 34.024 C 151.192 33.808,151.000 33.565,151.000 33.483 C 151.000 33.400,150.813 33.333,150.583 33.333 C 150.354 33.333,150.167 33.266,150.167 33.183 C 150.167 32.967,145.554 32.944,145.421 33.160 M175.833 33.167 C 175.696 33.247,175.377 33.357,175.125 33.410 C 174.872 33.463,174.397 33.768,174.069 34.087 C 173.457 34.681,173.122 34.872,173.508 34.407 C 173.686 34.193,173.682 34.157,173.487 34.199 C 173.356 34.227,173.269 34.156,173.292 34.042 C 173.315 33.927,173.258 33.833,173.167 33.833 C 173.075 33.833,173.000 33.721,173.000 33.583 C 173.000 33.372,172.602 33.333,170.417 33.333 L 167.833 33.333 167.833 48.319 L 167.833 63.305 170.730 63.325 C 174.205 63.350,173.833 63.840,173.833 59.236 C 173.833 56.968,173.894 55.667,174.000 55.667 C 174.092 55.667,174.167 55.779,174.167 55.917 C 174.167 56.097,174.352 56.167,174.833 56.167 C 175.200 56.167,175.500 56.245,175.500 56.340 C 175.500 56.601,179.109 56.521,179.329 56.255 C 179.426 56.138,179.695 56.083,179.940 56.130 C 180.236 56.187,180.426 56.126,180.530 55.940 C 180.614 55.790,180.830 55.667,181.008 55.667 C 181.187 55.667,181.333 55.565,181.333 55.440 C 181.333 55.288,181.471 55.239,181.750 55.293 C 182.055 55.351,182.167 55.300,182.167 55.103 C 182.167 54.955,182.284 54.833,182.427 54.833 C 182.569 54.833,182.640 54.758,182.583 54.667 C 182.527 54.575,182.597 54.500,182.740 54.500 C 182.883 54.500,183.000 54.387,183.000 54.250 C 183.000 54.112,183.070 54.000,183.155 54.000 C 183.240 54.000,183.336 53.831,183.367 53.625 C 183.399 53.419,183.517 53.269,183.629 53.292 C 183.741 53.315,183.833 53.190,183.833 53.014 C 183.833 52.838,183.912 52.668,184.007 52.636 C 184.103 52.605,184.193 52.419,184.208 52.224 C 184.224 52.015,184.321 51.903,184.444 51.950 C 184.582 52.003,184.630 51.911,184.586 51.682 C 184.543 51.458,184.605 51.333,184.760 51.333 C 185.055 51.333,185.077 51.059,184.792 50.944 C 184.625 50.876,184.625 50.857,184.792 50.846 C 184.906 50.839,185.000 50.646,185.000 50.417 C 185.000 50.188,185.075 50.000,185.167 50.000 C 185.258 50.000,185.333 49.615,185.333 49.143 C 185.333 48.530,185.416 48.219,185.625 48.048 C 185.794 47.909,185.811 47.862,185.667 47.936 C 185.463 48.040,185.454 48.018,185.617 47.817 C 185.935 47.424,185.898 41.095,185.577 40.828 C 185.419 40.697,185.333 40.312,185.333 39.730 C 185.333 39.237,185.274 38.833,185.201 38.833 C 185.128 38.833,185.049 38.554,185.026 38.213 C 185.003 37.872,184.906 37.545,184.809 37.485 C 184.713 37.426,184.623 37.189,184.609 36.960 C 184.593 36.701,184.504 36.573,184.375 36.622 C 184.236 36.676,184.167 36.530,184.167 36.184 C 184.167 35.900,184.092 35.667,184.000 35.667 C 183.908 35.667,183.833 35.567,183.833 35.445 C 183.833 35.323,183.646 35.123,183.417 35.000 C 183.188 34.877,183.000 34.640,183.000 34.472 C 183.000 34.304,182.883 34.167,182.740 34.167 C 182.597 34.167,182.522 34.099,182.573 34.017 C 182.624 33.934,182.291 33.732,181.833 33.567 C 181.375 33.402,181.000 33.207,181.000 33.134 C 181.000 32.952,176.147 32.982,175.833 33.167 M203.833 33.162 C 203.833 33.236,203.571 33.345,203.250 33.406 C 202.929 33.466,202.667 33.591,202.667 33.684 C 202.667 33.777,202.591 33.806,202.499 33.749 C 202.407 33.692,202.286 33.763,202.231 33.906 C 202.176 34.049,202.008 34.169,201.857 34.172 C 201.559 34.178,201.000 34.548,201.000 34.739 C 201.000 34.913,200.550 35.333,200.363 35.333 C 200.216 35.333,200.075 35.557,200.021 35.875 C 200.010 35.944,199.869 36.145,199.708 36.321 C 199.130 36.959,199.000 37.157,199.000 37.400 C 199.000 37.536,198.925 37.693,198.833 37.750 C 198.742 37.807,198.667 37.989,198.667 38.156 C 198.667 38.323,198.561 38.547,198.432 38.654 C 198.303 38.761,198.218 39.033,198.243 39.258 C 198.269 39.495,198.201 39.667,198.082 39.667 C 197.944 39.667,197.870 40.006,197.855 40.708 C 197.838 41.474,197.758 41.805,197.551 41.958 C 197.361 42.099,197.341 42.167,197.489 42.167 C 197.649 42.167,197.660 42.224,197.528 42.383 C 197.270 42.694,197.325 46.705,197.586 46.605 C 197.721 46.554,197.792 46.851,197.816 47.557 C 197.860 48.898,197.913 49.221,198.101 49.284 C 198.186 49.312,198.244 49.592,198.229 49.906 C 198.209 50.332,198.261 50.453,198.434 50.387 C 198.603 50.322,198.667 50.443,198.667 50.825 C 198.667 51.135,198.736 51.310,198.833 51.250 C 198.925 51.193,199.000 51.255,199.000 51.388 C 199.000 51.520,199.109 51.838,199.241 52.094 C 199.374 52.350,199.445 52.621,199.398 52.696 C 199.352 52.772,199.418 52.833,199.545 52.833 C 199.673 52.833,199.877 53.021,200.000 53.250 C 200.123 53.479,200.310 53.667,200.417 53.667 C 200.523 53.667,200.706 53.846,200.824 54.065 C 200.941 54.284,201.216 54.559,201.435 54.676 C 201.654 54.794,201.833 54.989,201.833 55.111 C 201.833 55.237,202.014 55.333,202.250 55.333 C 202.479 55.333,202.667 55.408,202.667 55.500 C 202.667 55.592,202.809 55.667,202.982 55.667 C 203.156 55.667,203.338 55.772,203.388 55.901 C 203.443 56.046,203.678 56.121,204.003 56.099 C 204.291 56.079,204.723 56.164,204.962 56.287 C 205.455 56.543,209.105 56.567,209.261 56.315 C 209.312 56.234,209.643 56.167,209.998 56.167 C 210.353 56.167,210.755 56.054,210.893 55.917 C 211.030 55.779,211.285 55.667,211.458 55.667 C 211.838 55.667,213.191 55.017,212.833 55.006 C 212.688 55.001,212.758 54.906,213.000 54.779 C 213.834 54.339,214.167 54.082,214.167 53.877 C 214.167 53.761,214.247 53.667,214.345 53.667 C 214.765 53.667,215.000 53.162,215.000 52.262 C 215.000 51.751,214.929 51.333,214.841 51.333 C 214.754 51.333,214.558 51.071,214.405 50.750 C 214.253 50.429,214.067 50.167,213.993 50.167 C 213.918 50.167,213.833 49.998,213.803 49.792 C 213.745 49.381,211.000 49.089,211.000 49.493 C 211.000 49.589,210.884 49.667,210.742 49.667 C 210.600 49.667,210.310 49.854,210.098 50.083 C 209.886 50.313,209.624 50.500,209.517 50.500 C 209.409 50.500,209.143 50.617,208.924 50.760 C 208.706 50.904,208.390 50.997,208.222 50.969 C 208.047 50.939,207.934 51.005,207.958 51.125 C 207.984 51.255,207.811 51.333,207.500 51.333 C 207.225 51.333,207.000 51.266,207.000 51.185 C 207.000 51.103,206.813 50.989,206.583 50.932 C 206.354 50.874,206.166 50.735,206.164 50.622 C 206.162 50.489,206.104 50.505,206.000 50.667 C 205.892 50.833,205.838 50.847,205.836 50.708 C 205.834 50.594,205.753 50.500,205.655 50.500 C 205.432 50.500,205.000 50.079,205.000 49.863 C 205.000 49.775,204.883 49.657,204.739 49.602 C 204.596 49.547,204.526 49.426,204.583 49.333 C 204.641 49.240,204.571 49.119,204.427 49.064 C 204.284 49.009,204.167 48.791,204.167 48.579 C 204.167 48.368,204.084 48.167,203.983 48.133 C 203.882 48.100,203.800 47.796,203.800 47.459 C 203.800 47.122,203.695 46.759,203.567 46.653 C 203.038 46.214,203.567 46.167,209.000 46.167 C 214.285 46.167,214.667 46.147,214.669 45.875 C 214.671 45.626,214.695 45.620,214.833 45.833 C 214.965 46.037,214.995 46.015,214.997 45.718 C 214.999 45.517,215.076 45.306,215.170 45.248 C 215.384 45.116,215.368 40.707,215.153 40.575 C 215.069 40.523,215.000 40.147,215.000 39.740 C 215.000 39.261,214.927 38.999,214.792 38.997 C 214.653 38.996,214.667 38.941,214.833 38.833 C 215.000 38.726,215.014 38.671,214.875 38.669 C 214.760 38.668,214.667 38.477,214.667 38.245 C 214.667 38.013,214.554 37.780,214.417 37.727 C 214.261 37.667,214.162 37.401,214.155 37.024 C 214.145 36.533,214.116 36.480,214.000 36.750 C 213.873 37.045,213.855 37.031,213.845 36.625 C 213.838 36.334,213.742 36.167,213.583 36.167 C 213.446 36.167,213.333 36.052,213.333 35.911 C 213.333 35.770,213.106 35.433,212.828 35.161 C 212.549 34.889,212.367 34.667,212.423 34.667 C 212.478 34.667,212.411 34.554,212.274 34.417 C 212.136 34.279,211.868 34.167,211.679 34.167 C 211.489 34.167,211.333 34.109,211.333 34.038 C 211.333 33.967,211.052 33.771,210.708 33.603 C 210.365 33.434,209.949 33.227,209.784 33.142 C 209.420 32.954,203.833 32.974,203.833 33.162 M223.417 33.167 C 223.510 33.317,222.926 33.417,222.375 33.346 C 222.260 33.331,222.167 33.435,222.167 33.576 C 222.167 33.722,222.023 33.833,221.833 33.833 C 221.650 33.833,221.500 33.908,221.500 34.000 C 221.500 34.092,221.369 34.167,221.208 34.167 C 221.048 34.167,220.584 34.471,220.177 34.842 C 219.771 35.214,219.358 35.570,219.261 35.634 C 219.013 35.796,218.667 36.445,218.667 36.748 C 218.667 36.886,218.554 37.000,218.417 37.000 C 218.279 37.000,218.167 37.146,218.167 37.323 C 218.167 37.501,218.092 37.693,218.000 37.750 C 217.908 37.807,217.833 37.992,217.833 38.163 C 217.833 38.333,217.752 38.499,217.653 38.532 C 217.553 38.566,217.455 38.840,217.434 39.142 C 217.413 39.444,217.320 39.742,217.228 39.804 C 217.136 39.866,217.040 40.329,217.016 40.832 C 216.991 41.336,216.906 41.788,216.827 41.837 C 216.487 42.047,216.896 49.344,217.247 49.336 C 217.337 49.334,217.413 49.636,217.417 50.008 C 217.420 50.379,217.519 50.742,217.636 50.815 C 217.754 50.887,217.862 51.107,217.877 51.302 C 217.892 51.498,218.005 51.697,218.129 51.744 C 218.253 51.792,218.307 51.907,218.250 52.000 C 218.193 52.093,218.263 52.214,218.406 52.269 C 218.549 52.324,218.667 52.465,218.667 52.583 C 218.667 52.701,218.778 52.840,218.914 52.893 C 219.050 52.945,219.121 53.093,219.071 53.222 C 219.021 53.351,219.102 53.504,219.251 53.561 C 219.403 53.619,219.469 53.749,219.401 53.858 C 219.327 53.978,219.355 54.007,219.474 53.933 C 219.580 53.867,219.667 53.906,219.667 54.018 C 219.667 54.130,219.716 54.173,219.776 54.113 C 219.940 53.949,220.347 54.343,220.222 54.545 C 220.160 54.645,220.196 54.668,220.308 54.599 C 220.413 54.534,220.500 54.560,220.500 54.657 C 220.500 54.754,220.612 54.833,220.750 54.833 C 220.887 54.833,221.000 54.946,221.000 55.083 C 221.000 55.237,221.156 55.333,221.407 55.333 C 221.631 55.333,221.860 55.408,221.917 55.500 C 221.973 55.592,222.165 55.667,222.343 55.667 C 222.521 55.667,222.667 55.764,222.667 55.883 C 222.667 56.005,222.867 56.105,223.125 56.113 C 224.204 56.144,224.349 56.174,224.245 56.341 C 224.109 56.562,228.165 56.535,228.436 56.314 C 228.539 56.231,228.932 56.145,229.311 56.123 C 229.728 56.099,229.999 56.001,229.999 55.875 C 230.000 55.755,230.212 55.667,230.500 55.667 C 230.775 55.667,231.000 55.594,231.000 55.504 C 231.000 55.415,231.229 55.223,231.509 55.079 C 232.118 54.764,232.677 54.233,232.542 54.097 C 232.488 54.044,232.553 54.000,232.685 54.000 C 232.818 54.000,233.035 53.850,233.167 53.667 C 233.299 53.483,233.522 53.332,233.662 53.331 C 233.852 53.329,233.864 53.295,233.708 53.196 C 233.550 53.095,233.580 52.977,233.833 52.705 C 234.017 52.508,234.167 52.202,234.167 52.025 C 234.167 51.847,234.276 51.661,234.409 51.609 C 234.546 51.557,234.622 51.369,234.585 51.175 C 234.543 50.958,234.607 50.833,234.760 50.833 C 234.922 50.833,235.000 50.648,235.000 50.260 C 235.000 49.944,235.075 49.640,235.167 49.583 C 235.258 49.527,235.333 49.212,235.333 48.884 C 235.333 48.517,235.446 48.194,235.625 48.048 C 235.794 47.909,235.811 47.862,235.667 47.936 C 235.464 48.040,235.454 48.018,235.615 47.819 C 235.849 47.530,235.911 41.099,235.679 41.242 C 235.479 41.366,235.333 40.921,235.333 40.186 C 235.333 39.846,235.261 39.494,235.172 39.406 C 235.084 39.317,234.993 39.002,234.970 38.706 C 234.948 38.409,234.870 38.167,234.798 38.167 C 234.726 38.167,234.667 37.971,234.667 37.732 C 234.667 37.423,234.598 37.324,234.428 37.389 C 234.267 37.451,234.156 37.331,234.088 37.023 C 234.033 36.771,233.840 36.459,233.661 36.329 C 233.481 36.199,233.333 35.993,233.333 35.870 C 233.333 35.747,233.258 35.693,233.167 35.750 C 233.075 35.807,233.000 35.704,233.000 35.521 C 233.000 35.334,232.853 35.142,232.662 35.082 C 232.477 35.023,232.057 34.699,231.730 34.362 C 231.403 34.026,230.974 33.747,230.776 33.742 C 230.578 33.738,230.435 33.645,230.458 33.534 C 230.485 33.408,230.284 33.333,229.917 33.333 C 229.596 33.333,229.333 33.258,229.333 33.167 C 229.333 33.062,228.219 33.000,226.323 33.000 C 224.359 33.000,223.349 33.058,223.417 33.167 M276.254 33.161 C 276.195 33.256,275.975 33.333,275.765 33.333 C 275.554 33.333,275.180 33.521,274.932 33.750 C 274.685 33.979,274.427 34.167,274.358 34.167 C 274.109 34.167,273.336 34.587,273.335 34.723 C 273.334 34.800,272.996 35.191,272.583 35.592 C 272.171 35.993,271.833 36.474,271.833 36.660 C 271.833 36.848,271.724 37.000,271.589 37.000 C 271.450 37.000,271.382 37.099,271.431 37.229 C 271.480 37.354,271.402 37.574,271.260 37.717 C 271.117 37.859,271.000 38.127,271.000 38.312 C 271.000 38.496,270.925 38.693,270.833 38.750 C 270.742 38.807,270.667 39.074,270.667 39.343 C 270.667 39.647,270.580 39.833,270.438 39.833 C 270.279 39.833,270.205 40.078,270.192 40.647 C 270.182 41.094,270.097 41.662,270.003 41.908 C 269.784 42.484,269.789 42.545,270.042 42.402 C 270.208 42.308,270.208 42.329,270.042 42.509 C 269.781 42.789,269.741 46.577,270.000 46.417 C 270.106 46.351,270.167 46.804,270.167 47.657 C 270.167 48.641,270.224 49.000,270.381 49.000 C 270.566 49.000,270.663 49.382,270.711 50.292 C 270.717 50.406,270.785 50.500,270.861 50.500 C 270.938 50.500,271.000 50.655,271.000 50.845 C 271.000 51.035,271.113 51.304,271.252 51.442 C 271.390 51.580,271.460 51.763,271.408 51.848 C 271.355 51.933,271.429 52.047,271.573 52.102 C 271.716 52.157,271.833 52.307,271.833 52.434 C 271.833 52.562,271.908 52.667,272.000 52.667 C 272.092 52.667,272.167 52.821,272.167 53.010 C 272.167 53.199,272.228 53.315,272.304 53.268 C 272.457 53.174,273.000 53.746,273.000 54.002 C 273.000 54.093,273.117 54.167,273.260 54.167 C 273.403 54.167,273.473 54.242,273.417 54.333 C 273.360 54.425,273.396 54.500,273.498 54.500 C 273.599 54.500,273.869 54.688,274.098 54.917 C 274.328 55.146,274.624 55.333,274.758 55.333 C 274.891 55.333,275.000 55.392,275.000 55.465 C 275.000 55.537,275.162 55.608,275.360 55.623 C 275.558 55.638,275.776 55.741,275.845 55.852 C 275.913 55.962,276.254 56.082,276.602 56.118 C 276.951 56.154,277.314 56.247,277.409 56.324 C 277.674 56.539,281.888 56.556,281.755 56.342 C 281.651 56.172,281.838 56.136,282.875 56.126 C 283.149 56.124,283.333 56.030,283.333 55.894 C 283.333 55.740,283.548 55.667,284.000 55.667 C 284.367 55.667,284.667 55.592,284.667 55.500 C 284.667 55.408,284.762 55.333,284.880 55.333 C 284.997 55.333,285.297 55.101,285.546 54.816 C 285.796 54.532,286.000 54.344,286.000 54.400 C 286.000 54.455,286.300 54.200,286.667 53.833 C 287.328 53.172,287.696 51.333,287.167 51.333 C 287.075 51.333,287.000 51.146,287.000 50.917 C 287.000 50.650,286.906 50.500,286.740 50.500 C 286.597 50.500,286.527 50.425,286.583 50.333 C 286.640 50.242,286.569 50.167,286.427 50.167 C 286.260 50.167,286.167 50.016,286.167 49.750 C 286.167 49.340,286.144 49.333,284.833 49.333 C 284.056 49.333,283.500 49.403,283.500 49.500 C 283.500 49.592,283.348 49.667,283.161 49.667 C 282.975 49.667,282.780 49.779,282.727 49.917 C 282.674 50.054,282.527 50.167,282.399 50.167 C 282.271 50.167,282.167 50.242,282.167 50.333 C 282.167 50.425,282.014 50.500,281.828 50.500 C 281.642 50.500,281.449 50.605,281.400 50.733 C 281.346 50.873,281.111 50.951,280.805 50.930 C 280.513 50.910,280.264 50.988,280.215 51.114 C 280.101 51.412,279.333 51.398,279.333 51.098 C 279.333 50.947,279.187 50.879,278.925 50.907 C 278.700 50.932,278.478 50.851,278.431 50.726 C 278.383 50.602,278.229 50.500,278.089 50.500 C 277.948 50.500,277.833 50.425,277.833 50.333 C 277.833 50.242,277.729 50.167,277.602 50.167 C 277.475 50.167,277.247 49.923,277.095 49.625 C 276.943 49.327,276.675 48.841,276.498 48.545 C 276.322 48.250,276.162 47.725,276.144 47.379 C 276.125 47.033,276.037 46.654,275.948 46.538 C 275.678 46.183,275.745 46.179,281.633 46.160 L 287.333 46.142 287.339 45.779 C 287.342 45.580,287.457 45.267,287.596 45.083 C 287.930 44.642,287.890 40.891,287.549 40.760 C 287.408 40.706,287.333 40.357,287.333 39.755 C 287.333 39.248,287.274 38.833,287.202 38.833 C 287.130 38.833,287.053 38.601,287.032 38.318 C 287.010 38.034,286.877 37.687,286.737 37.546 C 286.596 37.405,286.519 37.191,286.565 37.070 C 286.619 36.930,286.562 36.884,286.406 36.944 C 286.235 37.010,286.193 36.958,286.266 36.769 C 286.324 36.616,286.285 36.500,286.175 36.500 C 286.068 36.500,286.027 36.425,286.083 36.333 C 286.140 36.242,286.107 36.167,286.010 36.167 C 285.913 36.167,285.833 36.053,285.833 35.914 C 285.833 35.619,284.369 34.167,284.071 34.167 C 283.960 34.167,283.823 34.046,283.766 33.899 C 283.708 33.747,283.557 33.673,283.415 33.727 C 283.264 33.785,283.167 33.727,283.167 33.578 C 283.167 33.417,282.995 33.333,282.667 33.333 C 282.392 33.333,282.167 33.265,282.167 33.181 C 282.167 32.962,276.389 32.942,276.254 33.161 M297.833 33.167 C 297.833 33.258,297.646 33.333,297.417 33.333 C 297.150 33.333,297.000 33.427,297.000 33.593 C 297.000 33.736,296.920 33.804,296.823 33.744 C 296.725 33.683,296.519 33.742,296.364 33.875 C 296.032 34.160,295.529 34.447,295.707 34.250 C 295.775 34.175,295.680 34.008,295.496 33.879 C 295.312 33.749,295.200 33.581,295.247 33.505 C 295.348 33.342,290.860 33.269,290.448 33.428 C 290.188 33.528,290.167 34.383,290.167 44.758 L 290.167 55.980 290.875 56.085 C 291.265 56.143,292.596 56.166,293.833 56.137 L 296.083 56.083 296.127 48.024 C 296.164 41.092,296.203 39.978,296.410 40.058 C 296.570 40.119,296.619 40.069,296.557 39.908 C 296.506 39.775,296.554 39.667,296.663 39.667 C 296.772 39.667,297.116 39.404,297.428 39.083 C 297.739 38.762,298.104 38.500,298.237 38.500 C 298.371 38.500,298.527 38.425,298.583 38.333 C 298.640 38.242,298.944 38.167,299.260 38.167 C 299.575 38.167,299.833 38.242,299.833 38.333 C 299.833 38.425,299.950 38.500,300.093 38.500 C 300.236 38.500,300.307 38.575,300.250 38.667 C 300.193 38.758,300.306 38.833,300.500 38.833 C 300.694 38.833,300.810 38.903,300.757 38.988 C 300.704 39.074,300.737 39.191,300.831 39.248 C 300.924 39.306,301.000 39.541,301.000 39.770 C 301.000 39.999,301.069 40.144,301.152 40.092 C 301.434 39.918,301.520 42.375,301.468 49.104 C 301.430 54.031,301.468 55.838,301.611 55.972 C 301.737 56.090,302.752 56.141,304.527 56.118 L 307.250 56.083 307.293 47.594 C 307.322 41.871,307.280 39.070,307.164 38.998 C 307.069 38.939,306.977 38.502,306.959 38.025 C 306.939 37.484,306.859 37.185,306.747 37.228 C 306.639 37.270,306.580 37.100,306.601 36.804 C 306.621 36.508,306.541 36.275,306.401 36.221 C 306.272 36.171,306.167 35.964,306.167 35.760 C 306.167 35.536,306.003 35.302,305.750 35.167 C 305.521 35.044,305.333 34.876,305.333 34.793 C 305.333 34.621,304.910 34.167,304.750 34.167 C 304.569 34.167,304.167 33.702,304.167 33.494 C 304.167 33.386,304.061 33.338,303.933 33.387 C 303.804 33.437,303.561 33.372,303.391 33.244 C 303.017 32.960,297.833 32.888,297.833 33.167 M361.417 33.167 C 361.510 33.317,360.926 33.417,360.375 33.346 C 360.260 33.331,360.167 33.435,360.167 33.576 C 360.167 33.722,360.023 33.833,359.833 33.833 C 359.650 33.833,359.500 33.908,359.500 34.000 C 359.500 34.092,359.369 34.167,359.208 34.167 C 359.048 34.167,358.584 34.471,358.177 34.842 C 357.771 35.214,357.358 35.570,357.261 35.634 C 357.013 35.796,356.667 36.445,356.667 36.748 C 356.667 36.886,356.554 37.000,356.417 37.000 C 356.279 37.000,356.167 37.146,356.167 37.323 C 356.167 37.501,356.092 37.693,356.000 37.750 C 355.908 37.807,355.833 37.992,355.833 38.163 C 355.833 38.333,355.752 38.499,355.653 38.532 C 355.553 38.566,355.455 38.840,355.434 39.142 C 355.413 39.444,355.320 39.742,355.228 39.804 C 355.136 39.866,355.040 40.329,355.016 40.832 C 354.991 41.336,354.906 41.788,354.827 41.837 C 354.487 42.047,354.896 49.344,355.247 49.336 C 355.337 49.334,355.413 49.636,355.417 50.008 C 355.420 50.379,355.519 50.742,355.636 50.815 C 355.754 50.887,355.862 51.107,355.877 51.302 C 355.892 51.498,356.005 51.697,356.129 51.744 C 356.253 51.792,356.307 51.907,356.250 52.000 C 356.193 52.093,356.263 52.214,356.406 52.269 C 356.549 52.324,356.667 52.465,356.667 52.583 C 356.667 52.701,356.778 52.840,356.914 52.893 C 357.050 52.945,357.121 53.093,357.071 53.222 C 357.021 53.351,357.102 53.504,357.251 53.561 C 357.403 53.619,357.469 53.749,357.401 53.858 C 357.327 53.978,357.355 54.007,357.474 53.933 C 357.580 53.867,357.667 53.906,357.667 54.018 C 357.667 54.130,357.716 54.173,357.776 54.113 C 357.940 53.949,358.347 54.343,358.222 54.545 C 358.160 54.645,358.196 54.668,358.308 54.599 C 358.413 54.534,358.500 54.560,358.500 54.657 C 358.500 54.754,358.613 54.833,358.750 54.833 C 358.887 54.833,359.000 54.946,359.000 55.083 C 359.000 55.237,359.156 55.333,359.407 55.333 C 359.631 55.333,359.860 55.408,359.917 55.500 C 359.973 55.592,360.165 55.667,360.343 55.667 C 360.521 55.667,360.667 55.764,360.667 55.883 C 360.667 56.005,360.867 56.105,361.125 56.113 C 362.204 56.144,362.349 56.174,362.245 56.341 C 362.109 56.562,366.165 56.535,366.436 56.314 C 366.539 56.231,366.932 56.145,367.311 56.123 C 367.728 56.099,367.999 56.001,367.999 55.875 C 368.000 55.755,368.212 55.667,368.500 55.667 C 368.775 55.667,369.000 55.594,369.000 55.504 C 369.000 55.415,369.229 55.223,369.509 55.079 C 370.118 54.764,370.677 54.233,370.542 54.097 C 370.488 54.044,370.553 54.000,370.685 54.000 C 370.818 54.000,371.035 53.850,371.167 53.667 C 371.299 53.483,371.522 53.332,371.662 53.331 C 371.852 53.329,371.864 53.295,371.708 53.196 C 371.550 53.095,371.580 52.977,371.833 52.705 C 372.017 52.508,372.167 52.202,372.167 52.025 C 372.167 51.847,372.276 51.661,372.409 51.609 C 372.546 51.557,372.622 51.369,372.585 51.175 C 372.543 50.958,372.607 50.833,372.760 50.833 C 372.922 50.833,373.000 50.648,373.000 50.260 C 373.000 49.944,373.075 49.640,373.167 49.583 C 373.258 49.527,373.333 49.212,373.333 48.884 C 373.333 48.517,373.446 48.194,373.625 48.048 C 373.794 47.909,373.811 47.862,373.667 47.936 C 373.464 48.040,373.454 48.018,373.615 47.819 C 373.849 47.530,373.911 41.099,373.679 41.242 C 373.479 41.366,373.333 40.921,373.333 40.186 C 373.333 39.846,373.261 39.494,373.172 39.406 C 373.084 39.317,372.993 39.002,372.970 38.706 C 372.948 38.409,372.870 38.167,372.798 38.167 C 372.726 38.167,372.667 37.971,372.667 37.732 C 372.667 37.423,372.598 37.324,372.428 37.389 C 372.267 37.451,372.156 37.331,372.088 37.023 C 372.033 36.771,371.840 36.459,371.661 36.329 C 371.481 36.199,371.333 35.993,371.333 35.870 C 371.333 35.747,371.258 35.693,371.167 35.750 C 371.075 35.807,371.000 35.704,371.000 35.521 C 371.000 35.334,370.853 35.142,370.662 35.082 C 370.477 35.023,370.057 34.699,369.730 34.362 C 369.403 34.026,368.974 33.747,368.776 33.742 C 368.578 33.738,368.435 33.645,368.458 33.534 C 368.485 33.408,368.284 33.333,367.917 33.333 C 367.596 33.333,367.333 33.258,367.333 33.167 C 367.333 33.062,366.219 33.000,364.323 33.000 C 362.359 33.000,361.349 33.058,361.417 33.167 M325.416 33.708 C 325.366 33.915,325.345 39.033,325.371 45.083 L 325.417 56.083 328.333 56.083 L 331.250 56.083 331.293 44.708 L 331.336 33.333 328.421 33.333 C 325.536 33.333,325.505 33.337,325.416 33.708 M207.500 37.944 C 207.500 38.097,207.548 38.174,207.607 38.116 C 207.765 37.957,208.667 38.536,208.667 38.796 C 208.667 38.919,208.742 38.973,208.833 38.917 C 208.929 38.858,209.000 39.004,209.000 39.258 C 209.000 39.556,209.072 39.675,209.219 39.618 C 209.378 39.557,209.417 39.671,209.363 40.040 C 209.312 40.391,209.372 40.592,209.561 40.698 C 209.711 40.781,209.833 41.034,209.833 41.258 L 209.833 41.667 206.833 41.667 L 203.833 41.667 203.833 41.083 C 203.833 40.762,203.908 40.500,204.000 40.500 C 204.092 40.500,204.167 40.321,204.167 40.101 C 204.167 39.882,204.279 39.659,204.417 39.606 C 204.554 39.554,204.667 39.407,204.667 39.280 C 204.667 38.905,205.631 37.997,205.914 38.105 C 206.075 38.167,206.167 38.105,206.167 37.934 C 206.167 37.733,206.332 37.667,206.833 37.667 C 207.344 37.667,207.500 37.731,207.500 37.944 M279.940 37.917 C 279.992 38.054,280.143 38.167,280.273 38.167 C 280.553 38.167,281.510 39.101,281.372 39.239 C 281.320 39.291,281.384 39.334,281.514 39.336 C 281.708 39.338,281.706 39.367,281.500 39.500 C 281.286 39.638,281.292 39.662,281.542 39.664 C 281.793 39.666,281.876 39.848,281.819 40.273 C 281.811 40.332,281.879 40.425,281.969 40.481 C 282.059 40.537,282.159 40.808,282.191 41.083 L 282.250 41.583 279.208 41.629 L 276.167 41.674 276.167 41.105 C 276.167 40.756,276.262 40.499,276.414 40.441 C 276.550 40.389,276.621 40.243,276.573 40.116 C 276.524 39.990,276.601 39.791,276.742 39.673 C 276.884 39.555,277.000 39.314,277.000 39.136 C 277.000 38.959,277.075 38.860,277.167 38.917 C 277.258 38.973,277.333 38.903,277.333 38.760 C 277.333 38.617,277.446 38.500,277.583 38.500 C 277.721 38.500,277.833 38.395,277.833 38.266 C 277.833 38.114,277.950 38.062,278.165 38.118 C 278.375 38.173,278.534 38.106,278.599 37.936 C 278.735 37.582,279.805 37.567,279.940 37.917 M177.500 38.333 C 177.500 38.425,177.650 38.500,177.833 38.500 C 178.028 38.500,178.167 38.611,178.167 38.768 C 178.167 38.937,178.258 39.000,178.417 38.940 C 178.569 38.881,178.667 38.939,178.667 39.089 C 178.667 39.223,178.742 39.333,178.833 39.333 C 178.925 39.333,179.000 39.588,179.000 39.899 C 179.000 40.223,179.097 40.502,179.228 40.552 C 179.375 40.608,179.439 40.849,179.409 41.228 C 179.381 41.582,179.456 41.894,179.598 42.012 C 179.980 42.329,179.935 46.092,179.546 46.241 C 179.300 46.335,179.295 46.374,179.505 46.506 C 179.640 46.592,179.665 46.663,179.562 46.664 C 179.456 46.666,179.392 46.881,179.416 47.161 C 179.439 47.433,179.356 47.853,179.230 48.095 C 179.104 48.337,179.044 48.602,179.095 48.685 C 179.146 48.768,179.064 48.883,178.913 48.941 C 178.694 49.025,178.683 49.075,178.861 49.187 C 179.027 49.293,179.031 49.329,178.875 49.331 C 178.760 49.332,178.667 49.454,178.667 49.601 C 178.667 49.762,178.574 49.833,178.433 49.779 C 178.293 49.725,178.165 49.823,178.112 50.024 C 178.064 50.208,177.865 50.400,177.670 50.451 C 177.474 50.502,177.350 50.635,177.393 50.747 C 177.443 50.879,177.329 50.935,177.069 50.907 C 176.813 50.879,176.667 50.948,176.667 51.098 C 176.667 51.341,176.238 51.430,176.139 51.208 C 176.070 51.052,175.032 50.500,174.808 50.500 C 174.594 50.500,174.273 50.171,174.074 49.750 C 173.831 49.234,173.705 40.500,173.941 40.500 C 174.182 40.500,174.370 40.028,174.223 39.790 C 174.152 39.675,174.215 39.650,174.398 39.720 C 174.555 39.780,174.644 39.765,174.595 39.686 C 174.546 39.607,174.692 39.402,174.920 39.231 C 175.147 39.061,175.333 38.844,175.333 38.750 C 175.333 38.656,175.502 38.495,175.708 38.393 C 176.185 38.157,177.500 38.113,177.500 38.333 M227.285 38.341 C 227.560 38.437,227.884 38.700,228.004 38.925 C 228.125 39.149,228.305 39.333,228.405 39.333 C 228.505 39.333,228.685 39.491,228.806 39.684 C 228.952 39.919,228.960 39.995,228.828 39.914 C 228.720 39.847,228.753 39.976,228.900 40.201 C 229.047 40.426,229.118 40.660,229.056 40.722 C 228.995 40.783,229.051 40.833,229.181 40.833 C 229.356 40.833,229.415 41.067,229.411 41.746 C 229.407 42.340,229.480 42.687,229.619 42.741 C 229.886 42.843,229.927 46.422,229.664 46.585 C 229.571 46.643,229.535 46.754,229.583 46.833 C 229.632 46.912,229.607 47.017,229.527 47.067 C 229.447 47.116,229.395 47.421,229.411 47.745 C 229.429 48.105,229.363 48.333,229.242 48.333 C 229.133 48.333,229.044 48.465,229.045 48.625 C 229.047 49.262,228.994 49.516,228.875 49.444 C 228.806 49.402,228.653 49.473,228.535 49.601 C 228.417 49.729,228.370 49.833,228.431 49.833 C 228.491 49.833,228.448 49.945,228.335 50.081 C 228.222 50.218,228.063 50.289,227.983 50.240 C 227.903 50.190,227.887 50.278,227.947 50.435 C 228.022 50.630,227.994 50.683,227.860 50.600 C 227.752 50.533,227.624 50.584,227.573 50.716 C 227.522 50.851,227.308 50.933,227.075 50.907 C 226.815 50.879,226.667 50.947,226.667 51.096 C 226.667 51.243,226.513 51.317,226.250 51.295 C 226.021 51.276,225.833 51.177,225.833 51.075 C 225.833 50.973,225.665 50.901,225.459 50.917 C 225.013 50.950,223.824 49.821,223.787 49.329 C 223.774 49.148,223.666 49.000,223.548 49.000 C 223.408 49.000,223.333 48.764,223.333 48.323 C 223.333 47.951,223.266 47.689,223.183 47.740 C 223.101 47.791,222.998 47.514,222.954 47.124 C 222.910 46.735,222.826 46.229,222.767 46.000 C 222.677 45.650,222.685 45.637,222.818 45.917 C 222.961 46.216,222.978 46.203,222.988 45.782 C 222.995 45.510,222.930 45.357,222.833 45.417 C 222.729 45.481,222.667 45.137,222.667 44.500 C 222.667 43.939,222.728 43.518,222.804 43.565 C 222.879 43.612,222.955 43.151,222.971 42.541 C 222.988 41.931,223.076 41.357,223.168 41.266 C 223.259 41.175,223.333 40.965,223.333 40.800 C 223.333 40.630,223.460 40.495,223.625 40.488 C 223.880 40.478,223.876 40.461,223.596 40.351 C 223.300 40.235,223.297 40.216,223.564 40.114 C 223.724 40.052,223.813 39.935,223.762 39.852 C 223.710 39.769,223.781 39.659,223.918 39.606 C 224.055 39.553,224.167 39.358,224.167 39.172 C 224.167 38.931,224.276 38.833,224.547 38.833 C 224.755 38.833,225.035 38.683,225.167 38.500 C 225.440 38.121,226.439 38.047,227.285 38.341 M343.918 38.336 C 343.976 38.429,344.088 38.465,344.168 38.416 C 344.248 38.366,344.468 38.492,344.657 38.694 C 344.846 38.897,345.000 39.008,345.000 38.942 C 345.000 38.875,345.105 38.917,345.233 39.035 C 345.360 39.153,345.431 39.307,345.389 39.376 C 345.347 39.446,345.429 39.547,345.573 39.602 C 345.885 39.722,345.978 48.667,345.667 48.667 C 345.575 48.667,345.500 48.782,345.500 48.922 C 345.500 49.062,345.388 49.220,345.251 49.273 C 345.114 49.325,345.043 49.435,345.094 49.517 C 345.145 49.600,345.069 49.667,344.927 49.667 C 344.784 49.667,344.667 49.767,344.667 49.890 C 344.667 50.013,344.348 50.214,343.958 50.337 C 343.569 50.460,343.162 50.626,343.055 50.706 C 342.942 50.791,342.731 50.786,342.555 50.696 C 342.387 50.609,342.044 50.442,341.792 50.325 C 341.540 50.207,341.333 50.011,341.333 49.889 C 341.333 49.766,341.258 49.667,341.167 49.667 C 341.075 49.667,341.000 49.560,341.000 49.431 C 341.000 49.301,340.921 49.168,340.824 49.136 C 340.728 49.104,340.631 48.955,340.609 48.805 C 340.587 48.656,340.484 48.432,340.380 48.307 C 340.277 48.182,340.170 47.494,340.144 46.778 C 340.117 46.062,340.036 45.439,339.964 45.395 C 339.892 45.350,339.833 45.014,339.833 44.647 C 339.833 44.245,339.899 44.021,340.000 44.083 C 340.106 44.149,340.167 43.668,340.167 42.760 C 340.167 41.784,340.228 41.333,340.361 41.333 C 340.468 41.333,340.506 41.284,340.446 41.224 C 340.386 41.163,340.419 41.014,340.521 40.891 C 340.623 40.769,340.667 40.518,340.619 40.334 C 340.562 40.117,340.613 40.000,340.766 40.000 C 340.895 40.000,341.000 39.901,341.000 39.780 C 341.000 39.454,341.905 38.500,342.213 38.500 C 342.360 38.500,342.527 38.425,342.583 38.333 C 342.718 38.115,343.783 38.117,343.918 38.336 M365.285 38.341 C 365.560 38.437,365.884 38.700,366.004 38.925 C 366.125 39.149,366.305 39.333,366.405 39.333 C 366.505 39.333,366.685 39.491,366.806 39.684 C 366.952 39.919,366.960 39.995,366.828 39.914 C 366.720 39.847,366.753 39.976,366.900 40.201 C 367.047 40.426,367.118 40.660,367.056 40.722 C 366.995 40.783,367.051 40.833,367.181 40.833 C 367.356 40.833,367.415 41.067,367.411 41.746 C 367.407 42.340,367.480 42.687,367.619 42.741 C 367.886 42.843,367.927 46.422,367.664 46.585 C 367.571 46.643,367.535 46.754,367.583 46.833 C 367.632 46.912,367.607 47.017,367.527 47.067 C 367.447 47.116,367.395 47.421,367.411 47.745 C 367.429 48.105,367.363 48.333,367.242 48.333 C 367.133 48.333,367.044 48.465,367.045 48.625 C 367.047 49.262,366.994 49.516,366.875 49.444 C 366.806 49.402,366.653 49.473,366.535 49.601 C 366.417 49.729,366.370 49.833,366.431 49.833 C 366.491 49.833,366.448 49.945,366.335 50.081 C 366.222 50.218,366.063 50.289,365.983 50.240 C 365.903 50.190,365.887 50.278,365.947 50.435 C 366.022 50.630,365.994 50.683,365.860 50.600 C 365.752 50.533,365.624 50.584,365.573 50.716 C 365.522 50.851,365.308 50.933,365.075 50.907 C 364.815 50.879,364.667 50.947,364.667 51.096 C 364.667 51.243,364.513 51.317,364.250 51.295 C 364.021 51.276,363.833 51.177,363.833 51.075 C 363.833 50.973,363.665 50.901,363.459 50.917 C 363.013 50.950,361.824 49.821,361.787 49.329 C 361.774 49.148,361.666 49.000,361.548 49.000 C 361.408 49.000,361.333 48.764,361.333 48.323 C 361.333 47.951,361.266 47.689,361.183 47.740 C 361.101 47.791,360.998 47.514,360.954 47.124 C 360.910 46.735,360.826 46.229,360.767 46.000 C 360.677 45.650,360.685 45.637,360.818 45.917 C 360.961 46.216,360.978 46.203,360.988 45.782 C 360.995 45.510,360.930 45.357,360.833 45.417 C 360.729 45.481,360.667 45.137,360.667 44.500 C 360.667 43.939,360.728 43.518,360.804 43.565 C 360.879 43.612,360.955 43.151,360.971 42.541 C 360.988 41.931,361.076 41.357,361.168 41.266 C 361.259 41.175,361.333 40.965,361.333 40.800 C 361.333 40.630,361.460 40.495,361.625 40.488 C 361.880 40.478,361.876 40.461,361.596 40.351 C 361.300 40.235,361.297 40.216,361.564 40.114 C 361.724 40.052,361.813 39.935,361.762 39.852 C 361.710 39.769,361.781 39.659,361.918 39.606 C 362.055 39.553,362.167 39.358,362.167 39.172 C 362.167 38.931,362.276 38.833,362.547 38.833 C 362.755 38.833,363.035 38.683,363.167 38.500 C 363.440 38.121,364.439 38.047,365.285 38.341 M237.871 42.873 L 237.917 45.583 243.046 45.627 L 248.175 45.671 248.129 42.961 L 248.083 40.250 242.954 40.206 L 237.825 40.162 237.871 42.873 " stroke="none" fill="#2cb4bc" fill-rule="evenodd"></path><path id="path3" d="M3.755 0.463 C 3.691 0.631,3.743 0.673,3.928 0.602 C 4.074 0.546,4.225 0.500,4.264 0.500 C 4.302 0.500,4.333 0.438,4.333 0.361 C 4.333 0.124,3.853 0.209,3.755 0.463 M1.278 2.278 C 1.217 2.339,1.167 2.517,1.167 2.674 C 1.167 2.831,1.052 3.054,0.913 3.170 C 0.773 3.286,0.699 3.421,0.748 3.470 C 0.878 3.600,1.322 2.964,1.328 2.639 C 1.331 2.486,1.427 2.323,1.542 2.277 C 1.658 2.230,1.670 2.187,1.569 2.180 C 1.470 2.173,1.339 2.217,1.278 2.278 M75.328 2.491 C 75.533 2.873,75.833 3.090,75.833 2.855 C 75.833 2.690,75.377 2.167,75.232 2.167 C 75.190 2.167,75.233 2.312,75.328 2.491 M0.417 3.794 C 0.162 3.981,0.141 4.333,0.391 4.237 C 0.546 4.177,0.741 3.643,0.597 3.669 C 0.590 3.671,0.508 3.727,0.417 3.794 M76.500 4.453 C 76.500 4.758,76.693 5.167,76.836 5.167 C 77.026 5.167,76.935 4.701,76.698 4.465 C 76.559 4.326,76.500 4.322,76.500 4.453 M23.708 14.610 C 23.594 14.657,23.500 14.772,23.500 14.868 C 23.500 14.981,23.577 14.977,23.724 14.855 C 23.885 14.721,28.091 14.656,38.516 14.625 L 53.083 14.581 38.500 14.554 C 30.479 14.539,23.823 14.564,23.708 14.610 M30.609 20.292 C 30.539 20.405,38.534 20.404,48.917 20.288 C 51.117 20.264,47.915 20.226,41.802 20.205 C 35.688 20.184,30.652 20.223,30.609 20.292 M194.580 39.833 C 194.580 48.496,194.600 52.040,194.625 47.708 C 194.650 43.377,194.650 36.290,194.625 31.958 C 194.600 27.627,194.580 31.171,194.580 39.833 M325.392 24.794 C 325.453 24.893,325.385 25.092,325.240 25.237 C 325.095 25.381,325.054 25.500,325.149 25.500 C 325.433 25.500,325.700 24.874,325.475 24.734 C 325.360 24.664,325.327 24.688,325.392 24.794 M251.391 29.257 C 251.337 29.399,251.339 29.561,251.396 29.618 C 251.453 29.675,251.500 29.593,251.500 29.435 C 251.500 29.276,251.575 29.193,251.667 29.250 C 251.758 29.307,251.833 29.274,251.833 29.177 C 251.833 28.906,251.502 28.967,251.391 29.257 M221.444 33.778 C 221.383 33.839,221.334 33.970,221.336 34.069 C 221.338 34.192,221.378 34.189,221.461 34.061 C 221.528 33.957,221.733 33.834,221.917 33.789 C 222.239 33.708,222.239 33.705,221.903 33.686 C 221.712 33.675,221.506 33.717,221.444 33.778 M359.444 33.778 C 359.383 33.839,359.334 33.970,359.336 34.069 C 359.338 34.192,359.378 34.189,359.461 34.061 C 359.528 33.957,359.733 33.834,359.917 33.789 C 360.239 33.708,360.239 33.705,359.903 33.686 C 359.712 33.675,359.506 33.717,359.444 33.778 M309.053 36.000 C 309.053 36.596,309.084 36.840,309.121 36.542 C 309.158 36.244,309.158 35.756,309.121 35.458 C 309.084 35.160,309.053 35.404,309.053 36.000 M286.300 36.680 C 286.250 36.811,286.312 37.015,286.438 37.132 C 286.688 37.366,286.711 37.257,286.517 36.762 C 286.420 36.514,286.371 36.495,286.300 36.680 M309.204 37.829 C 309.256 38.106,309.648 38.574,309.747 38.476 C 309.782 38.440,309.664 38.225,309.484 37.998 C 309.305 37.770,309.179 37.694,309.204 37.829 M301.410 48.417 C 301.410 52.450,301.432 54.076,301.458 52.030 C 301.485 49.985,301.485 46.685,301.458 44.697 C 301.432 42.709,301.410 44.383,301.410 48.417 M154.576 48.583 C 154.576 52.433,154.598 53.985,154.625 52.030 C 154.652 50.076,154.651 46.926,154.625 45.030 C 154.598 43.135,154.576 44.733,154.576 48.583 M179.407 41.849 C 179.345 41.950,179.415 42.153,179.564 42.302 C 179.723 42.461,179.833 42.493,179.833 42.379 C 179.833 42.273,179.757 42.139,179.664 42.082 C 179.571 42.024,179.538 41.907,179.590 41.822 C 179.643 41.736,179.649 41.667,179.603 41.667 C 179.557 41.667,179.469 41.749,179.407 41.849 M228.029 50.183 C 227.720 50.677,227.857 50.714,228.216 50.234 C 228.381 50.013,228.455 49.833,228.381 49.833 C 228.307 49.833,228.149 49.991,228.029 50.183 M366.029 50.183 C 365.720 50.677,365.857 50.714,366.216 50.234 C 366.381 50.013,366.455 49.833,366.381 49.833 C 366.307 49.833,366.149 49.991,366.029 50.183 M219.833 54.224 C 219.833 54.376,219.950 54.500,220.093 54.500 C 220.236 54.500,220.307 54.575,220.250 54.667 C 220.193 54.758,220.226 54.833,220.323 54.833 C 220.600 54.833,220.532 54.580,220.167 54.250 C 219.867 53.979,219.833 53.976,219.833 54.224 M357.833 54.224 C 357.833 54.376,357.950 54.500,358.093 54.500 C 358.236 54.500,358.307 54.575,358.250 54.667 C 358.193 54.758,358.226 54.833,358.323 54.833 C 358.600 54.833,358.532 54.580,358.167 54.250 C 357.867 53.979,357.833 53.976,357.833 54.224 M53.065 62.002 C 52.953 62.113,47.998 62.156,38.381 62.127 C 30.397 62.103,23.900 62.140,23.942 62.208 C 24.109 62.479,52.941 62.355,53.167 62.083 C 53.400 61.802,53.324 61.742,53.065 62.002 M76.601 71.764 C 76.546 71.909,76.500 72.111,76.500 72.214 C 76.500 72.483,76.887 72.071,76.934 71.752 C 76.982 71.419,76.730 71.428,76.601 71.764 M75.364 74.083 C 74.971 74.536,75.144 74.665,75.571 74.238 C 75.803 74.007,75.927 73.667,75.780 73.667 C 75.751 73.667,75.564 73.854,75.364 74.083 M2.235 75.204 C 2.290 75.477,2.833 75.589,2.833 75.328 C 2.833 75.220,2.726 75.172,2.594 75.223 C 2.463 75.273,2.318 75.242,2.273 75.153 C 2.228 75.064,2.211 75.087,2.235 75.204 M3.762 76.222 C 3.809 76.344,3.956 76.444,4.088 76.444 C 4.269 76.444,4.283 76.390,4.144 76.222 C 4.042 76.100,3.896 76.000,3.818 76.000 C 3.741 76.000,3.716 76.100,3.762 76.222 " stroke="none" fill="#44bcc4" fill-rule="evenodd"></path><path id="path4" d="M23.911 15.041 C 23.867 15.156,23.850 25.750,23.874 38.583 L 23.917 61.917 38.167 61.963 C 46.004 61.988,52.585 61.968,52.792 61.918 C 53.284 61.799,53.383 57.407,52.905 56.929 C 52.672 56.696,51.416 56.667,41.589 56.667 C 31.664 56.667,30.525 56.640,30.434 56.403 C 30.173 55.721,30.327 40.871,30.597 40.768 C 30.742 40.712,34.859 40.667,39.746 40.667 C 47.694 40.667,48.642 40.639,48.732 40.403 C 48.895 39.977,48.843 36.107,48.670 35.833 C 48.534 35.618,47.264 35.572,39.464 35.500 L 30.417 35.417 30.369 28.250 C 30.342 24.308,30.365 20.840,30.418 20.542 L 30.515 20.000 41.633 19.997 C 47.747 19.996,52.846 19.934,52.963 19.860 C 53.124 19.758,53.165 19.132,53.130 17.321 L 53.083 14.917 38.537 14.874 C 26.988 14.840,23.974 14.875,23.911 15.041 M52.732 15.264 C 52.881 15.651,52.851 19.382,52.697 19.624 C 52.594 19.785,50.080 19.840,41.408 19.874 L 30.250 19.917 30.207 27.648 C 30.175 33.217,30.216 35.442,30.352 35.606 C 30.507 35.793,32.125 35.833,39.437 35.833 L 48.333 35.833 48.333 38.167 L 48.333 40.500 39.450 40.500 C 32.763 40.500,30.517 40.549,30.367 40.700 C 30.155 40.912,30.061 56.196,30.268 56.736 C 30.359 56.973,31.505 57.000,41.515 57.000 L 52.660 57.000 52.753 57.375 C 52.805 57.581,52.825 58.650,52.798 59.750 L 52.750 61.750 38.458 61.793 L 24.167 61.835 24.167 38.418 L 24.167 15.000 38.399 15.000 C 51.223 15.000,52.641 15.026,52.732 15.264 " stroke="none" fill="#c4e4ec" fill-rule="evenodd"></path></g></svg>